<?xml version="1.0" standalone="no"?>
<!DOCTYPE svg PUBLIC "-//W3C//DTD SVG 20010904//EN"
 "http://www.w3.org/TR/2001/REC-SVG-20010904/DTD/svg10.dtd">
<svg version="1.0" xmlns="http://www.w3.org/2000/svg"
 width="700.000000pt" height="700.000000pt" viewBox="0 0 700.000000 700.000000"
 preserveAspectRatio="xMidYMid meet">
<metadata>
Created by potrace 1.14, written by Peter Selinger 2001-2017
</metadata>
<g transform="translate(0.000000,700.000000) scale(0.100000,-0.100000)"
fill="#000000" stroke="none">
<path d="M3377 6344 c-1 -1 -55 -5 -119 -8 -64 -4 -127 -9 -140 -11 -13 -2
-56 -6 -96 -10 -40 -3 -78 -8 -85 -10 -7 -2 -31 -6 -55 -9 -24 -3 -82 -13
-130 -22 -113 -21 -106 -20 -187 -39 -38 -9 -78 -18 -88 -20 -50 -11 -274 -93
-362 -132 -395 -179 -764 -492 -1004 -853 -248 -371 -365 -725 -436 -1312 -9
-75 -19 -296 -19 -418 0 -455 72 -905 200 -1243 253 -665 804 -1200 1472
-1426 196 -66 463 -123 682 -146 36 -4 72 -9 81 -10 102 -19 502 -24 704 -8
140 10 206 18 355 39 74 11 248 46 322 65 800 202 1441 795 1703 1574 148 442
209 1123 144 1615 -5 41 -12 91 -14 110 -12 86 -18 123 -41 240 -42 208 -73
317 -140 482 -271 675 -850 1202 -1547 1408 -99 29 -310 75 -392 85 -22 3 -47
7 -55 10 -8 2 -37 7 -65 10 -27 3 -68 7 -90 10 -97 12 -126 15 -230 21 -95 6
-364 11 -368 8z m398 -448 c146 -13 224 -23 330 -41 44 -8 96 -16 115 -20 151
-26 394 -107 542 -181 206 -103 345 -203 509 -364 164 -161 281 -324 384 -533
105 -213 168 -434 210 -737 9 -63 18 -126 20 -139 16 -98 22 -440 11 -616 -45
-687 -232 -1158 -610 -1540 -305 -307 -651 -482 -1126 -569 -121 -22 -180 -30
-398 -51 -86 -9 -408 -9 -513 -1 -711 58 -1162 241 -1539 625 -283 289 -456
621 -539 1036 -16 83 -32 174 -36 204 -4 30 -8 61 -10 70 -3 17 -11 91 -21
211 -8 90 -8 455 0 508 3 20 8 71 11 112 13 165 74 485 120 625 100 306 248
548 475 776 288 291 593 458 1000 548 132 30 160 34 395 66 17 2 77 7 135 11
58 3 106 7 107 8 6 5 365 -2 428 -8z"/>
<path d="M2978 4770 c-44 -13 -63 -30 -305 -272 l-233 -232 -41 39 c-23 22
-63 61 -89 87 -61 62 -116 86 -185 83 -148 -8 -242 -147 -195 -290 17 -54 354
-398 419 -427 52 -24 125 -25 177 -3 27 11 143 121 375 353 361 362 364 365
361 463 -4 139 -148 240 -284 199z"/>
<path d="M3747 4315 c-95 -24 -161 -112 -160 -209 2 -89 48 -161 127 -197 38
-17 77 -19 619 -19 631 0 618 -1 680 58 87 82 92 223 10 307 -69 71 -44 69
-671 70 -373 0 -577 -3 -605 -10z"/>
<path d="M3007 3258 c-21 -4 -51 -15 -67 -23 -17 -9 -136 -122 -265 -252
l-236 -235 -97 94 c-98 95 -139 118 -207 118 -117 0 -217 -100 -217 -216 0
-86 25 -123 219 -315 142 -141 188 -180 226 -194 53 -20 126 -16 176 9 43 23
678 662 700 705 38 74 28 168 -26 230 -57 67 -130 95 -206 79z"/>
<path d="M3750 2803 c-78 -26 -123 -68 -149 -139 -46 -124 26 -257 153 -284
35 -8 231 -10 611 -8 551 3 561 3 600 25 76 41 116 105 116 187 0 95 -42 163
-126 202 l-50 24 -570 -1 c-313 0 -577 -3 -585 -6z"/>
</g>
</svg>
